<svg width="67" height="61" viewBox="0 0 67 61" fill="none" xmlns="http://www.w3.org/2000/svg">
<path d="M38.4056 33.933C37.8559 34.0702 37.3168 34.3074 36.8215 34.6296C35.5321 35.4496 34.7577 36.5823 35.0921 37.1592C35.4264 37.7362 36.7428 37.5388 38.0323 36.7188C38.5336 36.4072 38.9832 36.0156 39.3534 35.5684C39.5255 35.3526 39.5646 35.0899 39.4533 34.8985L39.0189 34.149C38.9085 33.957 38.6678 33.8724 38.4056 33.933Z" fill="#D5D6DB"/>
<path d="M35.6241 23.5895C35.2256 23.689 34.8345 23.8611 34.4754 24.0947C33.5406 24.6892 32.9788 25.5105 33.2211 25.9285C33.4633 26.3465 34.4182 26.2033 35.3529 25.6089C35.7164 25.3828 36.0424 25.0988 36.3109 24.7745C36.4355 24.618 36.4638 24.4277 36.3831 24.289L36.0686 23.7462C35.9886 23.607 35.8142 23.5455 35.6241 23.5895Z" fill="#D5D6DB"/>
<path d="M30.4636 24.2101C30.3759 24.2037 30.2812 24.2297 30.1979 24.2827L28.0022 25.6792C27.8185 25.7957 27.7389 26.0103 27.8244 26.1586C27.844 26.1925 27.8714 26.2212 27.9051 26.2428L33.0676 29.574L40.3893 24.9174L30.4636 24.2101Z" fill="#029BC5"/>
<path d="M53.1154 22.9084L33.1956 35.4353L21.5053 40.2706L15.585 41.6069L14.9773 40.5696L48.1666 20.0685C49.1558 19.455 50.2471 19.0613 51.3301 18.9272C51.8043 18.871 52.2706 18.8696 52.7182 18.9228C53.1151 18.967 53.4895 19.0662 53.8302 19.2174C54.2103 19.3889 54.9461 19.3841 55.1711 19.7447C55.1719 19.7441 55.6724 21.4186 53.1154 22.9084V22.9084Z" fill="#E1E6E9"/>
<path d="M33.5116 33.8602L24.6052 47.1246C24.4932 47.3105 24.5482 47.5122 24.7279 47.5751C24.8382 47.6138 24.9756 47.5921 25.0932 47.5175L27.287 46.1281C27.709 45.8607 28.0862 45.5268 28.3953 45.1469L45.4245 26.0236L33.5116 33.8602Z" fill="#029BC5"/>
<path d="M12.2577 34.1829C12.1188 34.1415 11.9506 34.1715 11.8062 34.2634L9.99257 35.4162C9.74545 35.5731 9.63866 35.8618 9.75395 36.0611C9.77592 36.099 9.80506 36.1319 9.84045 36.1587L14.668 39.8218L20.0083 36.4877L12.2577 34.1829Z" fill="#029BC5"/>
<path d="M16.308 40.4548L13.5006 44.1637C13.4595 44.2171 13.4663 44.2819 13.5158 44.3085C13.5515 44.3277 13.6014 44.3223 13.6429 44.2947L15.3375 43.2225C15.3507 43.2141 15.3627 43.2039 15.3728 43.1923L19.4493 38.4691L16.308 40.4548Z" fill="#029BC5"/>
<path d="M52.3927 19.09C51.9319 19.0346 51.4516 19.0364 50.9632 19.095C50.4655 19.7514 50.1361 20.4806 50.0076 21.2099C49.9948 21.3559 50.1127 21.4565 50.2711 21.4346C50.3203 21.4277 50.3697 21.4093 50.4146 21.3812L53.538 19.3962C53.1871 19.239 52.8015 19.1359 52.3927 19.09Z" fill="#029BC5"/>
<path d="M45.6095 22.7771L47.6483 21.4911L49.3936 24.4733L47.3547 25.7593L45.6095 22.7771Z" fill="#D5D6DB"/>
<path d="M44.3104 24.0273C44.0647 24.1827 43.9582 24.4684 44.0728 24.6654L44.2584 24.9845C44.3812 25.1761 44.6768 25.2 44.9186 25.038C45.1487 24.8836 45.249 24.6144 45.148 24.4219L44.9623 24.1027C44.8478 23.9059 44.5561 23.8721 44.3104 24.0273V24.0273Z" fill="#3A556A"/>
<path d="M42.4785 25.1648C42.2328 25.3202 42.1263 25.606 42.2409 25.8029L42.4265 26.1221C42.5493 26.3136 42.8449 26.3376 43.0867 26.1755C43.3168 26.0212 43.4171 25.752 43.3161 25.5594L43.1304 25.2403C43.0158 25.0436 42.7241 25.0097 42.4785 25.1648V25.1648Z" fill="#3A556A"/>
<path d="M40.646 26.3028C40.4006 26.4584 40.2945 26.7437 40.409 26.9406L40.5946 27.2597C40.7174 27.4512 41.013 27.4752 41.2548 27.3131C41.4849 27.1588 41.5852 26.8896 41.4841 26.6971L41.2985 26.378C41.1839 26.181 40.8918 26.1473 40.646 26.3028V26.3028Z" fill="#3A556A"/>
<path d="M38.8142 27.4404C38.5688 27.596 38.4627 27.8814 38.5772 28.0782L38.7628 28.3973C38.8856 28.5889 39.1812 28.6129 39.423 28.4508C39.6531 28.2965 39.7534 28.0273 39.6524 27.8347L39.4667 27.5156C39.352 27.3187 39.0599 27.285 38.8142 27.4404V27.4404Z" fill="#3A556A"/>
<path d="M36.9825 28.5781C36.7369 28.7338 36.6307 29.0193 36.7453 29.2162L36.931 29.5354C37.0456 29.7322 37.3375 29.7659 37.5831 29.6105C37.8288 29.4552 37.9351 29.1697 37.8206 28.9729L37.6348 28.6536C37.5206 28.4566 37.2288 28.4227 36.983 28.5778C36.9828 28.5779 36.9827 28.578 36.9825 28.5781Z" fill="#3A556A"/>
<path d="M35.1507 29.7157C34.9051 29.8714 34.799 30.1568 34.9135 30.3537L35.0993 30.673C35.2138 30.8698 35.5057 30.9034 35.7514 30.7481C35.997 30.5928 36.1033 30.3073 35.9888 30.1105L35.803 29.7912C35.6888 29.5942 35.397 29.5603 35.1512 29.7154C35.151 29.7155 35.1508 29.7156 35.1507 29.7157Z" fill="#3A556A"/>
<path d="M33.3187 30.8533C33.0731 31.009 32.9669 31.2945 33.0815 31.4914L33.2672 31.8106C33.382 32.0072 33.6742 32.0404 33.9195 31.8849C34.1645 31.7296 34.2706 31.4448 34.1566 31.2482L33.9709 30.9289C33.8564 30.732 33.5645 30.6981 33.3187 30.8533Z" fill="#3A556A"/>
<path d="M31.4867 31.991C31.2412 32.1467 31.135 32.4322 31.2496 32.6291L31.4353 32.9483C31.5501 33.145 31.8422 33.1781 32.0876 33.0226C32.3326 32.8673 32.4387 32.5825 32.3247 32.3859L32.139 32.0666C32.0245 31.8696 31.7326 31.8358 31.4867 31.991Z" fill="#3A556A"/>
<path d="M29.655 33.1286C29.4094 33.2843 29.3032 33.5697 29.4178 33.7666L29.6035 34.0859C29.7183 34.2825 30.0105 34.3157 30.2558 34.1602C30.5008 34.0049 30.6069 33.72 30.4929 33.5234L30.3072 33.2042C30.1926 33.0073 29.9007 32.9734 29.655 33.1286Z" fill="#3A556A"/>
<path d="M27.8226 34.2665C27.5769 34.4219 27.4706 34.7074 27.5851 34.9042L27.5854 34.9046L27.7711 35.2238C27.8859 35.4205 28.1781 35.4536 28.4234 35.2981C28.6684 35.1429 28.7745 34.858 28.6605 34.6614L28.4748 34.3421C28.3603 34.1452 28.0684 34.1113 27.8226 34.2665Z" fill="#3A556A"/>
<path d="M25.9911 35.4038C25.7455 35.5592 25.6392 35.8446 25.7537 36.0414L25.754 36.0418L25.9397 36.3611C26.0545 36.5577 26.3467 36.5909 26.592 36.4354C26.837 36.2801 26.9431 35.9952 26.8291 35.7986L26.6434 35.4794C26.5288 35.2825 26.2369 35.2486 25.9911 35.4038Z" fill="#3A556A"/>
</svg>
